<svg xmlns="http://www.w3.org/2000/svg" viewBox="0 0 512 512" fill="none">
  <rect width="512" height="512" rx="100" fill="#10b981"/>
  <path d="M256 80C158.8 80 80 158.8 80 256s78.8 176 176 176 176-78.8 176-176S353.2 80 256 80zm0 304c-70.7 0-128-57.3-128-128S185.3 128 256 128s128 57.3 128 128-57.3 128-128 128z" fill="white"/>
  <path d="M256 176c-44.2 0-80 35.8-80 80h48c0-17.6 14.4-32 32-32s32 14.4 32 32-14.4 32-32 32c-8.8 0-16 7.2-16 16v32h32v-16.8c28.2-7.2 48-32.2 48-61.2 0-44.2-35.8-80-80-80z" fill="white"/>
  <circle cx="256" cy="368" r="16" fill="white"/>
</svg>
